<?xml version="1.0" encoding="utf-8"?>
<!-- Generator: Adobe Illustrator 24.3.0, SVG Export Plug-In . SVG Version: 6.00 Build 0)  -->
<svg version="1.1" id="Layer_1" xmlns="http://www.w3.org/2000/svg" xmlns:xlink="http://www.w3.org/1999/xlink" x="0px" y="0px"
	 viewBox="0 0 32 32" style="enable-background:new 0 0 32 32;" xml:space="preserve">
<g>
	<path d="M13.31,0.25c1.05,0.04,2.07,0.15,3.03,0.6c0.73,0.35,1.29,0.87,1.62,1.62c0.11,0.27,0.29,0.42,0.58,0.47
		c1.08,0.16,1.74,0.8,1.96,1.9c0.2,1.03,0.07,2.04-0.15,3.05c-0.11,0.47-0.25,0.94-0.37,1.41c-0.12,0.43,0.02,0.67,0.45,0.77
		c0.19,0.04,0.28,0.15,0.26,0.33c-0.11,1.13-0.39,2.2-1.03,3.15c-0.07,0.1-0.23,0.19-0.36,0.2c-0.41,0.04-0.54,0.13-0.62,0.54
		c-0.21,1.07-0.62,2.06-1.23,2.96c-0.67,0.98-1.54,1.71-2.71,2.01c-1.83,0.47-3.3-0.18-4.48-1.57c-0.82-0.97-1.29-2.12-1.6-3.34
		c-0.11-0.44-0.26-0.53-0.69-0.6c-0.17-0.03-0.39-0.2-0.46-0.36c-0.28-0.67-0.52-1.35-0.74-2.04c-0.09-0.29-0.1-0.6-0.13-0.91
		C6.6,10.22,6.68,10.1,6.9,10.05c0.42-0.11,0.53-0.3,0.43-0.72C7.04,7.97,6.88,6.6,7.05,5.21c0.33-2.62,2.01-4.38,4.62-4.78
		C12.21,0.34,12.76,0.31,13.31,0.25z"/>
	<path d="M21.59,5.62c0.16,0,0.26,0,0.37,0c2.99,0,5.98,0,8.97,0c0.65,0,0.8,0.15,0.8,0.8c0,6.97,0,13.94,0,20.92
		c0,0.67-0.14,0.81-0.82,0.81c-0.91,0-1.82,0-2.72,0c-0.03,0-0.06-0.01-0.14-0.02c0-0.34,0-0.68,0-1.03c0-0.9-0.22-1.73-0.69-2.5
		c-0.56-0.9-1.32-1.55-2.31-1.94c-2.06-0.8-4.13-1.61-6.2-2.39c-0.31-0.12-0.41-0.26-0.4-0.59c0.03-0.66,0-1.33,0.01-2
		c0-0.14,0.05-0.29,0.11-0.42c0.31-0.74,0.63-1.47,0.96-2.2c0.06-0.13,0.18-0.23,0.29-0.33c0.22-0.21,0.5-0.37,0.68-0.61
		c0.8-1.1,1.21-2.33,1.16-3.7C21.63,10,21.51,9.6,21.16,9.3c-0.05-0.05-0.09-0.17-0.07-0.24C21.4,7.94,21.63,6.82,21.59,5.62z
		 M28.57,17.52c0.33,0,0.65,0.01,0.98,0c0.38-0.01,0.64-0.24,0.63-0.56c-0.01-0.31-0.25-0.53-0.62-0.54c-0.65-0.01-1.31-0.01-1.96,0
		c-0.36,0-0.61,0.24-0.61,0.55c0,0.31,0.24,0.54,0.61,0.55C27.92,17.52,28.25,17.52,28.57,17.52z M28.57,9.11
		c0.35,0,0.7,0.01,1.04,0c0.34-0.01,0.58-0.25,0.57-0.55c0-0.29-0.24-0.53-0.56-0.54c-0.7-0.01-1.39-0.01-2.09,0
		c-0.32,0-0.55,0.24-0.56,0.53c-0.01,0.3,0.24,0.54,0.57,0.55C27.89,9.12,28.23,9.11,28.57,9.11z M28.55,13.31
		c0.35,0,0.7,0.01,1.04,0c0.35-0.01,0.58-0.24,0.58-0.54c0-0.31-0.24-0.55-0.6-0.56c-0.66-0.01-1.33-0.01-1.99,0
		c-0.36,0-0.61,0.25-0.6,0.56c0.01,0.3,0.24,0.52,0.59,0.54C27.9,13.32,28.23,13.31,28.55,13.31z M28.6,20.51
		c-0.34,0-0.67-0.01-1.01,0c-0.36,0.01-0.61,0.24-0.6,0.55c0.01,0.3,0.25,0.53,0.59,0.53c0.67,0.01,1.35,0.01,2.02,0
		c0.34,0,0.58-0.23,0.59-0.54c0-0.3-0.24-0.54-0.57-0.55C29.27,20.51,28.94,20.51,28.6,20.51z M24.41,16.41
		C24.41,16.42,24.41,16.42,24.41,16.41c-0.19,0-0.38-0.01-0.57,0.01c-0.3,0.03-0.5,0.26-0.5,0.55c0,0.28,0.19,0.51,0.49,0.53
		c0.38,0.02,0.76,0.03,1.14,0c0.28-0.02,0.53-0.33,0.51-0.59c-0.02-0.26-0.23-0.47-0.53-0.49C24.77,16.4,24.59,16.41,24.41,16.41z
		 M24.42,8.03c-0.19,0-0.38-0.01-0.57,0c-0.3,0.02-0.51,0.26-0.51,0.54c0,0.29,0.2,0.52,0.51,0.54c0.37,0.01,0.74,0.02,1.1,0
		c0.28-0.01,0.53-0.31,0.52-0.58c-0.01-0.26-0.24-0.48-0.52-0.5C24.78,8.02,24.6,8.03,24.42,8.03z M24.42,13.31
		C24.42,13.31,24.42,13.31,24.42,13.31c0.19,0,0.38,0.01,0.57-0.01c0.27-0.03,0.5-0.32,0.49-0.57c-0.01-0.24-0.22-0.48-0.49-0.5
		c-0.39-0.02-0.78-0.02-1.17,0c-0.3,0.02-0.49,0.28-0.48,0.57c0.01,0.28,0.21,0.48,0.51,0.51C24.04,13.32,24.23,13.31,24.42,13.31z"
		/>
	<path d="M20.21,21.86c1.12,0.44,2.22,0.86,3.32,1.29c0.41,0.16,0.83,0.3,1.24,0.48c1.38,0.62,2.16,1.69,2.21,3.2
		c0.05,1.57,0.01,3.15,0.01,4.72c0,0.05-0.01,0.1-0.02,0.18c-0.11,0.01-0.21,0.01-0.32,0.01c-3.15,0-6.29,0-9.44,0.01
		c-0.24,0-0.34-0.07-0.42-0.3c-0.44-1.32-0.9-2.63-1.36-3.95c-0.06-0.18-0.04-0.31,0.08-0.46c0.33-0.41,0.66-0.83,0.96-1.26
		c0.14-0.19,0.26-0.22,0.48-0.14c0.31,0.11,0.63,0.19,0.94,0.28c0.42,0.12,0.58,0.05,0.75-0.35c0.5-1.16,0.98-2.33,1.48-3.5
		C20.13,22.02,20.16,21.96,20.21,21.86z"/>
	<path d="M6.96,21.91c0.51,1.22,0.99,2.4,1.48,3.58c0.19,0.46,0.35,0.55,0.83,0.42c0.36-0.09,0.72-0.18,1.07-0.29
		c0.19-0.06,0.31-0.03,0.43,0.13c0.34,0.45,0.7,0.87,1.03,1.32c0.07,0.1,0.11,0.28,0.07,0.39c-0.45,1.36-0.93,2.71-1.39,4.07
		c-0.05,0.15-0.12,0.21-0.29,0.21c-3.25-0.01-6.51,0-9.76-0.01c-0.04,0-0.08-0.01-0.15-0.02c-0.01-0.11-0.01-0.21-0.01-0.31
		c0-1.45,0-2.89,0-4.34c0-1.64,0.83-2.86,2.36-3.47C4.07,23.04,5.5,22.48,6.96,21.91z"/>
	<path d="M15.74,31.73c-1.4,0-2.78,0-4.2,0c0.03-0.1,0.04-0.18,0.07-0.27c0.45-1.31,0.9-2.63,1.37-3.94
		c0.13-0.36,0.07-0.62-0.16-0.9c-0.37-0.43-0.72-0.88-1.11-1.37c0.67-0.17,1.3-0.35,1.93-0.48c0.19-0.04,0.41,0.08,0.61,0.13
		c0.41,0.11,0.83,0.22,1.3,0.35c-0.37,0.48-0.7,0.94-1.07,1.37c-0.24,0.28-0.28,0.54-0.16,0.9c0.45,1.29,0.88,2.59,1.32,3.89
		C15.67,31.52,15.7,31.62,15.74,31.73z"/>
	<path d="M9.8,18.81c2.56,2.18,5.09,2.16,7.65,0.01c0,0.45,0.01,0.87-0.01,1.28c0,0.08-0.07,0.17-0.14,0.23
		c-1.22,1.06-2.45,2.11-3.7,3.18c-0.3-0.25-0.6-0.5-0.9-0.75c-0.91-0.76-1.81-1.52-2.71-2.29c-0.1-0.09-0.18-0.26-0.19-0.39
		C9.79,19.66,9.8,19.25,9.8,18.81z"/>
	<path d="M7.93,21.6c0.04-0.04,0.05-0.05,0.05-0.06c0.36-0.15,0.73-0.44,1.08-0.41c0.32,0.03,0.61,0.41,0.9,0.65
		c0.85,0.71,1.7,1.42,2.6,2.18c-0.61,0.16-1.17,0.31-1.72,0.45c-0.43,0.11-0.85,0.24-1.29,0.33c-0.09,0.02-0.27-0.03-0.3-0.1
		C8.8,23.63,8.37,22.61,7.93,21.6z"/>
	<path d="M14.71,23.95c0.32-0.28,0.6-0.51,0.87-0.75c0.78-0.66,1.55-1.33,2.34-1.98c0.09-0.07,0.27-0.1,0.38-0.07
		c0.31,0.09,0.61,0.23,0.94,0.36c-0.27,0.64-0.53,1.25-0.79,1.87c-0.17,0.41-0.34,0.82-0.53,1.22c-0.04,0.08-0.18,0.17-0.24,0.15
		C16.71,24.5,15.74,24.23,14.71,23.95z"/>
</g>
</svg>
