<?xml version="1.0" encoding="utf-8"?>
<!-- Generator: Adobe Illustrator 24.3.0, SVG Export Plug-In . SVG Version: 6.00 Build 0)  -->
<svg version="1.1" id="Layer_1" xmlns="http://www.w3.org/2000/svg" xmlns:xlink="http://www.w3.org/1999/xlink" x="0px" y="0px"
	 viewBox="0 0 32 32" style="enable-background:new 0 0 32 32;" xml:space="preserve">
<g>
	<path d="M31.75,7.33c0,5.78,0,11.57,0,17.35c-0.02,0.07-0.05,0.13-0.06,0.2c-0.34,1.7-1.79,2.93-3.5,2.93
		c-8.12,0.01-16.24,0.01-24.36,0c-1.96,0-3.57-1.61-3.57-3.57c-0.01-5.49-0.01-10.99,0-16.48c0-1.96,1.61-3.56,3.57-3.57
		c8.12-0.01,16.24-0.01,24.36,0c1.17,0,2.11,0.51,2.83,1.43C31.41,6.13,31.6,6.72,31.75,7.33z M10.09,22.57c1.61,0,3.22,0,4.82,0
		c0.69,0,1.09-0.4,1.09-1.09c0-0.16,0-0.33,0-0.49c-0.01-2.06-1.56-3.65-3.62-3.67c-1.53-0.02-3.05-0.01-4.58,0
		c-1.11,0.01-2.05,0.45-2.77,1.3c-0.67,0.79-0.88,1.73-0.85,2.75c0.03,0.83,0.37,1.2,1.2,1.2C6.95,22.57,8.52,22.57,10.09,22.57z
		 M13.37,12.73c0-1.81-1.47-3.29-3.27-3.29c-1.8,0-3.26,1.46-3.27,3.26c-0.01,1.81,1.45,3.29,3.26,3.3
		C11.89,16.01,13.36,14.54,13.37,12.73z M23.23,12.06c1.17,0,2.33,0,3.5,0c0.63,0,1.07-0.4,1.08-0.97c0.01-0.58-0.44-1-1.09-1
		c-2.33,0-4.67,0-7,0c-0.66,0-1.09,0.4-1.09,0.99c0,0.59,0.44,0.98,1.1,0.98C20.9,12.06,22.06,12.06,23.23,12.06z M23.22,17.31
		C23.22,17.31,23.22,17.31,23.22,17.31c1.21,0,2.42,0,3.62,0c0.47,0,0.84-0.32,0.95-0.77c0.09-0.41-0.11-0.88-0.5-1.06
		c-0.2-0.09-0.43-0.13-0.65-0.13c-2.28-0.01-4.57-0.01-6.85,0c-0.15,0-0.31,0.01-0.46,0.05c-0.4,0.1-0.68,0.46-0.7,0.87
		c-0.03,0.6,0.39,1.04,1.02,1.04C20.85,17.31,22.04,17.31,23.22,17.31z M23.23,20.6C23.23,20.6,23.23,20.6,23.23,20.6
		c-1.16,0-2.31,0-3.47,0c-0.17,0-0.35,0.01-0.51,0.07c-0.44,0.16-0.68,0.6-0.6,1.09c0.07,0.45,0.47,0.8,0.99,0.8
		c2.4,0.01,4.79,0.01,7.19,0c0.17,0,0.35-0.06,0.5-0.14c0.38-0.2,0.57-0.67,0.47-1.07c-0.11-0.44-0.47-0.74-0.93-0.75
		C25.65,20.59,24.44,20.6,23.23,20.6z"/>
</g>
</svg>
