<?xml version="1.0" encoding="utf-8"?>
<!-- Generator: Adobe Illustrator 24.3.0, SVG Export Plug-In . SVG Version: 6.00 Build 0)  -->
<svg version="1.1" id="Layer_1" xmlns="http://www.w3.org/2000/svg" xmlns:xlink="http://www.w3.org/1999/xlink" x="0px" y="0px"
	 viewBox="0 0 32 32" style="enable-background:new 0 0 32 32;" xml:space="preserve">
<path d="M12.04,20.48c0.09-0.13,0.16-0.24,0.25-0.33c4.83-4.83,9.66-9.66,14.49-14.5c0.84-0.84,1.82-1.2,2.97-0.81
	c2.05,0.68,2.66,3.13,1.16,4.69c-1.21,1.25-2.45,2.46-3.68,3.69c-4.37,4.37-8.73,8.73-13.09,13.1c-0.48,0.48-1.01,0.84-1.69,0.95
	c-0.98,0.16-1.8-0.18-2.5-0.86c-1.57-1.52-3.15-3.05-4.72-4.57c-1.37-1.32-2.74-2.63-4.09-3.97c-0.79-0.77-1.09-1.71-0.77-2.78
	c0.33-1.09,1.08-1.79,2.19-2.03c0.97-0.22,1.81,0.08,2.52,0.76c1.39,1.33,2.78,2.66,4.16,3.99C10.16,18.68,11.06,19.54,12.04,20.48z
	"/>
</svg>
