<?xml version="1.0" encoding="utf-8"?>
<!-- Generator: Adobe Illustrator 24.3.0, SVG Export Plug-In . SVG Version: 6.00 Build 0)  -->
<svg version="1.1" id="Layer_1" xmlns="http://www.w3.org/2000/svg" xmlns:xlink="http://www.w3.org/1999/xlink" x="0px" y="0px"
	 viewBox="0 0 32 32" style="enable-background:new 0 0 32 32;" xml:space="preserve">
<style type="text/css">
	.st0{fill:#FFFFFF;}
</style>
<path class="st0" d="M28.81,25.1c-3.03-3.03-6.06-6.06-9.09-9.1c3.01-3.01,6.02-6.02,9.03-9.03c0.18-0.18,0.35-0.37,0.5-0.58
	c0.89-1.22,0.53-2.98-0.76-3.74c-1.13-0.67-2.36-0.48-3.39,0.55c-3.03,3.03-6.06,6.06-9.1,9.09c-2.98-2.98-5.96-5.96-8.94-8.94
	c-0.2-0.2-0.42-0.4-0.65-0.58c-1.25-0.93-3.04-0.54-3.8,0.81C1.97,4.71,2.19,5.91,3.24,6.96c3.01,3.01,6.03,6.03,9.04,9.04
	c-2.98,2.98-5.96,5.96-8.94,8.94c-0.2,0.2-0.4,0.42-0.58,0.65c-0.93,1.25-0.54,3.04,0.81,3.8c1.13,0.64,2.33,0.42,3.38-0.64
	c3.01-3.01,6.03-6.03,9.04-9.04c3.01,3.01,6.02,6.02,9.03,9.03c0.18,0.18,0.37,0.35,0.58,0.5c1.22,0.89,2.98,0.53,3.74-0.76
	C30.03,27.36,29.84,26.12,28.81,25.1z"/>
</svg>
