<?xml version="1.0" encoding="utf-8"?>
<!-- Generator: Adobe Illustrator 24.3.0, SVG Export Plug-In . SVG Version: 6.00 Build 0)  -->
<svg version="1.1" id="Layer_1" xmlns="http://www.w3.org/2000/svg" xmlns:xlink="http://www.w3.org/1999/xlink" x="0px" y="0px"
	 viewBox="0 0 32 32" style="enable-background:new 0 0 32 32;" xml:space="preserve">
<style type="text/css">
	.st0{fill:#FFFFFF;}
</style>
<g>
	<path class="st0" d="M16.03,2.5c4.42,0,8.84,0,13.27,0c1.25,0,2.11,0.63,2.39,1.73c0.32,1.25-0.53,2.54-1.81,2.74
		c-0.22,0.03-0.44,0.05-0.66,0.05c-8.81,0-17.63,0-26.44,0c-1.28,0-2.14-0.59-2.44-1.66c-0.36-1.29,0.49-2.61,1.81-2.8
		C2.39,2.51,2.64,2.5,2.89,2.5C7.27,2.5,11.65,2.5,16.03,2.5z"/>
	<path class="st0" d="M15.98,29.5c-4.42,0-8.84,0-13.27,0c-1.24,0-2.12-0.64-2.39-1.72C0,26.53,0.85,25.24,2.12,25.04
		c0.22-0.03,0.44-0.05,0.66-0.05c8.81,0,17.63,0,26.44,0c1.28,0,2.14,0.59,2.44,1.66c0.36,1.29-0.49,2.61-1.81,2.8
		c-0.24,0.04-0.5,0.04-0.74,0.04C24.73,29.5,20.35,29.5,15.98,29.5z"/>
	<path class="st0" d="M9.23,18.26c-2.18,0-4.37,0-6.55,0c-1.2,0-2.06-0.62-2.35-1.66c-0.36-1.29,0.49-2.6,1.82-2.8
		c0.19-0.03,0.38-0.04,0.57-0.04c4.35,0,8.7-0.01,13.05,0.01c0.44,0,0.91,0.1,1.31,0.29c0.89,0.43,1.31,1.41,1.12,2.4
		c-0.17,0.92-0.93,1.63-1.89,1.76c-0.22,0.03-0.44,0.04-0.66,0.04C13.51,18.26,11.37,18.26,9.23,18.26z"/>
</g>
</svg>
