<?xml version="1.0" encoding="utf-8"?>
<!-- Generator: Adobe Illustrator 24.3.0, SVG Export Plug-In . SVG Version: 6.00 Build 0)  -->
<svg version="1.1" id="Layer_1" xmlns="http://www.w3.org/2000/svg" xmlns:xlink="http://www.w3.org/1999/xlink" x="0px" y="0px"
	 viewBox="0 0 32 32" style="enable-background:new 0 0 32 32;" xml:space="preserve">
<g>
	<path d="M25.45,17.3c-3.33-0.7-6.19,0.1-8.41,2.64c-2.22,2.53-2.61,5.46-1.5,8.64c-0.1,0.01-0.2,0.02-0.29,0.02
		c-2.53,0-5.05,0.01-7.58,0c-3.01-0.01-5.31-2.32-5.32-5.33c0-5.91,0-11.81,0-17.72c0-2.57,1.72-4.68,4.23-5.2
		c0.34-0.07,0.69-0.1,1.04-0.1c4.18-0.01,8.36-0.01,12.53,0c2.97,0,5.28,2.32,5.29,5.29c0.01,3.82,0,7.63,0,11.45
		C25.45,17.09,25.45,17.19,25.45,17.3z M13.9,12.85c0.67,0,1.33,0,2,0c1.43,0,2.87,0.01,4.3,0c0.55,0,0.99-0.41,1.05-0.94
		c0.05-0.53-0.31-1.03-0.84-1.13c-0.14-0.03-0.28-0.02-0.42-0.02c-4.04,0-8.07,0-12.11,0c-0.12,0-0.24-0.01-0.36,0
		c-0.43,0.05-0.74,0.27-0.9,0.67c-0.28,0.71,0.24,1.42,1.04,1.42C9.74,12.85,11.82,12.85,13.9,12.85z M11.8,7.6c1.37,0,2.73,0,4.1,0
		c0.67,0,1.15-0.43,1.15-1.04c0.01-0.62-0.47-1.06-1.16-1.06c-2.72,0-5.45,0-8.17,0c-0.7,0-1.17,0.43-1.17,1.05
		c0,0.62,0.48,1.05,1.18,1.05C9.08,7.6,10.44,7.6,11.8,7.6z M10.75,18.1c1.04,0,2.08,0,3.11,0c0.69,0,1.16-0.44,1.16-1.06
		C15.01,16.43,14.54,16,13.87,16c-2.05,0-4.11,0-6.16,0c-0.69,0-1.17,0.44-1.16,1.06c0.01,0.61,0.48,1.04,1.15,1.04
		C8.72,18.1,9.73,18.1,10.75,18.1z M9.36,23.35c0.58,0,1.16,0,1.74,0c0.64-0.01,1.1-0.45,1.1-1.05c0-0.6-0.46-1.05-1.1-1.05
		c-1.15,0-2.29,0-3.44,0c-0.64,0-1.1,0.45-1.1,1.05c0,0.59,0.47,1.04,1.1,1.05C8.22,23.35,8.79,23.35,9.36,23.35z"/>
	<path d="M29.65,25.46c0,3.47-2.84,6.3-6.31,6.29c-3.47,0-6.3-2.84-6.29-6.31c0-3.47,2.84-6.29,6.31-6.29
		C26.83,19.15,29.65,21.99,29.65,25.46z M22.62,25.62c-0.22-0.24-0.4-0.48-0.61-0.68c-0.45-0.44-1.08-0.44-1.5-0.03
		c-0.42,0.41-0.42,1.05,0.01,1.5c0.45,0.46,0.91,0.92,1.37,1.37c0.46,0.44,1.07,0.44,1.52-0.01c0.93-0.91,1.85-1.83,2.75-2.77
		c0.16-0.17,0.27-0.43,0.31-0.66c0.08-0.42-0.18-0.83-0.56-1.02c-0.41-0.2-0.87-0.14-1.21,0.2C24.03,24.2,23.36,24.88,22.62,25.62z"
		/>
</g>
</svg>
