<?xml version="1.0" encoding="utf-8"?>
<!-- Generator: Adobe Illustrator 24.3.0, SVG Export Plug-In . SVG Version: 6.00 Build 0)  -->
<svg version="1.1" id="Layer_1" xmlns="http://www.w3.org/2000/svg" xmlns:xlink="http://www.w3.org/1999/xlink" x="0px" y="0px"
	 viewBox="0 0 32 32" style="enable-background:new 0 0 32 32;" xml:space="preserve">
<g>
	<path d="M21.98,4.29c-0.17,0-0.32,0-0.47,0c-3.89,0-7.77,0-11.66,0c-0.19,0-0.38,0-0.56,0.04C8.67,4.46,8.3,4.97,8.34,5.6
		c0.04,0.58,0.51,1.05,1.11,1.1C9.6,6.71,9.75,6.71,9.9,6.71c5.73,0,11.46,0,17.19,0c1.49,0,2.61,0.79,2.94,2.12
		c0.11,0.46,0.11,0.96,0.16,1.55c-2.67-1.88-5.48-2.48-8.53-1.75c-2.3,0.55-4.18,1.79-5.62,3.67c-2.85,3.72-2.72,8.91,0.22,12.55
		c2.8,3.47,8.93,5.33,13.84,1.72c0.4,1.88-0.94,3.55-2.88,3.57c-1.19,0.01-2.37,0-3.56,0c-6.27,0-12.54,0-18.81,0
		c-2.21,0-3.98-1.37-4.47-3.47C0.29,26.34,0.26,26,0.26,25.66c-0.01-6.43-0.01-12.87,0-19.3c0-2.49,1.92-4.47,4.42-4.48
		c4.83-0.03,9.67-0.02,14.5,0C20.63,1.87,21.84,2.9,21.98,4.29z"/>
	<path d="M24.07,26.08c-4.27-0.01-7.67-3.44-7.67-7.71c0-4.21,3.49-7.64,7.74-7.61c4.21,0.03,7.62,3.46,7.61,7.66
		C31.74,22.67,28.31,26.1,24.07,26.08z M24.27,19.58c0.02,0.04,0.04,0.07,0.06,0.11c-0.35,0.33-0.7,0.65-1.04,0.99
		c-0.54,0.54-0.57,1.29-0.07,1.78c0.5,0.5,1.23,0.47,1.78-0.08c1.02-1.01,2.04-2.03,3.05-3.05c0.61-0.62,0.61-1.26-0.01-1.88
		c-0.98-0.98-1.96-1.96-2.94-2.94c-0.53-0.52-1.26-0.54-1.75-0.03c-0.47,0.48-0.45,1.21,0.06,1.72c0.3,0.3,0.59,0.59,0.96,0.96
		c-1.14,0-2.17,0-3.2,0c-0.2,0-0.41,0.01-0.6,0.05c-0.54,0.11-0.92,0.59-0.93,1.14c-0.01,0.54,0.35,1.06,0.87,1.19
		c0.18,0.05,0.37,0.04,0.56,0.04C22.14,19.58,23.2,19.58,24.27,19.58z"/>
</g>
</svg>
