<?xml version="1.0" encoding="utf-8"?>
<!-- Generator: Adobe Illustrator 24.3.0, SVG Export Plug-In . SVG Version: 6.00 Build 0)  -->
<svg version="1.1" id="Layer_1" xmlns="http://www.w3.org/2000/svg" xmlns:xlink="http://www.w3.org/1999/xlink" x="0px" y="0px"
	 viewBox="0 0 32 32" style="enable-background:new 0 0 32 32;" xml:space="preserve">
<g>
	<path d="M25.21,28.49c0.14,1.73-0.76,2.97-2.31,3.22c-0.18,0.03-0.36,0.03-0.54,0.03c-6.41,0-12.83,0-19.24,0
		c-1.7,0-2.86-1.16-2.86-2.85c0-4.98,0-9.95,0-14.93c0-1.7,1.16-2.85,2.86-2.85c6.43,0,12.85,0,19.28,0c1.68,0,2.84,1.16,2.84,2.83
		c0,0.85,0,1.7,0,2.59c-0.14,0-0.27,0-0.4,0c-5.8,0-11.61,0-17.41,0c-1.74,0-3.05,1.11-3.33,2.82c-0.03,0.19-0.03,0.38-0.03,0.57
		c0,1.72,0,3.44,0,5.16c0,1.99,1.4,3.4,3.4,3.4c5.78,0,11.56,0,17.34,0C24.92,28.49,25.06,28.49,25.21,28.49z"/>
	<path d="M18.44,27.4c-3.64,0-7.29,0-10.93,0c-1.47,0-2.37-0.9-2.37-2.36c0-1.7,0-3.39,0-5.09c0-1.4,0.91-2.32,2.31-2.32
		c7.33,0,14.66,0,21.99,0c1.38,0,2.3,0.92,2.3,2.3c0,1.73,0,3.46,0,5.19c0,1.36-0.93,2.28-2.28,2.28
		C25.79,27.41,22.11,27.4,18.44,27.4z M9.75,21.57c-0.22-0.13-0.38-0.22-0.55-0.31c-0.32-0.17-0.64-0.09-0.79,0.19
		C8.26,21.72,8.35,22,8.66,22.19c0.17,0.11,0.34,0.2,0.54,0.32c-0.22,0.13-0.38,0.22-0.54,0.33c-0.3,0.19-0.39,0.48-0.23,0.75
		c0.15,0.27,0.46,0.35,0.77,0.19c0.18-0.09,0.35-0.19,0.57-0.32c0,0.25-0.01,0.45,0,0.65c0.01,0.34,0.24,0.57,0.55,0.57
		c0.31,0,0.52-0.23,0.54-0.58c0.01-0.2,0-0.4,0-0.64c0.22,0.12,0.38,0.22,0.55,0.31c0.32,0.17,0.64,0.09,0.79-0.19
		c0.15-0.27,0.06-0.56-0.24-0.75c-0.16-0.11-0.34-0.2-0.54-0.32c0.22-0.13,0.39-0.22,0.55-0.33c0.3-0.2,0.38-0.49,0.23-0.76
		c-0.15-0.27-0.46-0.34-0.77-0.18c-0.18,0.09-0.35,0.19-0.57,0.32c0-0.25,0.01-0.45,0-0.65c-0.02-0.34-0.24-0.57-0.55-0.57
		c-0.31,0-0.52,0.23-0.53,0.58C9.75,21.12,9.75,21.31,9.75,21.57z M14.62,22.52c-0.2,0.12-0.37,0.22-0.52,0.32
		c-0.32,0.2-0.41,0.5-0.25,0.77c0.17,0.27,0.47,0.34,0.8,0.16c0.17-0.09,0.33-0.18,0.53-0.3c0,0.25-0.01,0.44,0,0.63
		c0.01,0.36,0.24,0.6,0.56,0.59c0.31-0.01,0.51-0.24,0.53-0.59c0.01-0.19,0-0.39,0-0.63c0.15,0.08,0.24,0.13,0.32,0.18
		c0.51,0.29,0.81,0.28,1.01-0.04c0.19-0.32,0.05-0.61-0.45-0.9c-0.09-0.05-0.18-0.12-0.31-0.2c0.2-0.12,0.38-0.22,0.54-0.33
		c0.29-0.2,0.37-0.49,0.21-0.76c-0.16-0.26-0.46-0.33-0.77-0.17c-0.18,0.09-0.35,0.19-0.56,0.31c0-0.25,0.01-0.44,0-0.63
		c-0.01-0.35-0.22-0.58-0.53-0.59c-0.32-0.01-0.55,0.23-0.56,0.59c-0.01,0.19,0,0.39,0,0.63c-0.22-0.12-0.37-0.21-0.53-0.3
		c-0.33-0.18-0.64-0.12-0.8,0.16C13.69,21.7,13.78,22,14.1,22.2C14.26,22.3,14.42,22.4,14.62,22.52z M21.7,21.57
		c0-0.26,0.01-0.46,0-0.65c-0.01-0.35-0.23-0.57-0.54-0.57c-0.31,0-0.53,0.23-0.54,0.57c-0.01,0.2,0,0.4,0,0.64
		c-0.21-0.11-0.36-0.2-0.52-0.28c-0.35-0.19-0.66-0.13-0.82,0.16c-0.16,0.29-0.05,0.58,0.29,0.79c0.15,0.09,0.3,0.18,0.49,0.29
		c-0.22,0.13-0.38,0.22-0.54,0.33c-0.3,0.19-0.39,0.48-0.24,0.75c0.16,0.28,0.47,0.36,0.79,0.19c0.17-0.09,0.34-0.19,0.55-0.31
		c0,0.26-0.01,0.45,0,0.64c0.01,0.35,0.23,0.58,0.54,0.58c0.31,0,0.53-0.23,0.54-0.57c0.01-0.2,0-0.4,0-0.65
		c0.21,0.12,0.38,0.22,0.54,0.31c0.33,0.17,0.64,0.1,0.8-0.18c0.16-0.28,0.06-0.57-0.26-0.77c-0.16-0.1-0.32-0.19-0.51-0.31
		c0.23-0.14,0.4-0.23,0.57-0.34c0.28-0.19,0.35-0.47,0.21-0.73c-0.15-0.27-0.46-0.35-0.76-0.19C22.1,21.34,21.93,21.44,21.7,21.57z
		 M26.03,23.48c0.01,0.14,0.01,0.24,0.01,0.33c0,0.1,0,0.2,0,0.31c0.02,0.35,0.24,0.57,0.55,0.57c0.31,0,0.52-0.23,0.54-0.58
		c0.01-0.2,0-0.4,0-0.64c0.22,0.12,0.38,0.22,0.55,0.31c0.32,0.17,0.64,0.09,0.79-0.18c0.15-0.27,0.06-0.56-0.24-0.75
		c-0.16-0.11-0.34-0.2-0.54-0.32c0.21-0.12,0.37-0.21,0.52-0.31c0.32-0.2,0.42-0.5,0.26-0.77c-0.16-0.28-0.47-0.34-0.8-0.17
		c-0.17,0.09-0.33,0.18-0.54,0.3c0-0.25,0.01-0.45,0-0.65c-0.02-0.34-0.24-0.57-0.55-0.57c-0.31,0-0.52,0.23-0.54,0.58
		c-0.01,0.2,0,0.39,0,0.64c-0.22-0.13-0.38-0.22-0.55-0.31c-0.33-0.17-0.64-0.09-0.79,0.19c-0.15,0.27-0.06,0.55,0.24,0.75
		c0.17,0.11,0.34,0.2,0.54,0.32c-0.22,0.13-0.38,0.22-0.54,0.33c-0.3,0.19-0.39,0.48-0.24,0.75c0.15,0.27,0.46,0.35,0.77,0.19
		C25.65,23.7,25.82,23.59,26.03,23.48z"/>
	<path d="M20.38,10.01c-1.31,0-2.55,0-3.84,0c0-0.63,0.01-1.26-0.01-1.88c-0.01-0.4-0.03-0.82-0.13-1.21
		c-0.45-1.82-2.21-3.05-4.04-2.85c-1.92,0.21-3.38,1.78-3.43,3.68c-0.02,0.74,0,1.49,0,2.26c-1.27,0-2.52,0-3.77,0
		c-0.13-2.27-0.08-4.48,1.3-6.44c1.79-2.55,4.92-3.81,7.9-3.13c3.1,0.71,5.43,3.15,5.87,6.28C20.39,7.8,20.34,8.9,20.38,10.01z"/>
</g>
</svg>
