<?xml version="1.0" encoding="utf-8"?>
<!-- Generator: Adobe Illustrator 24.3.0, SVG Export Plug-In . SVG Version: 6.00 Build 0)  -->
<svg version="1.1" id="Layer_1" xmlns="http://www.w3.org/2000/svg" xmlns:xlink="http://www.w3.org/1999/xlink" x="0px" y="0px"
	 viewBox="0 0 32 32" style="enable-background:new 0 0 32 32;" xml:space="preserve">
<g>
	<path d="M7.73,31.75C7.37,31.68,7,31.62,6.65,31.52c-2.25-0.63-3.66-2.36-3.76-4.72c-0.1-2.43,0.17-4.83,1.09-7.11
		c0.6-1.47,1.46-2.74,2.92-3.52c0.9-0.48,1.86-0.71,2.86-0.69c0.32,0.01,0.65,0.17,0.94,0.32c0.47,0.25,0.9,0.57,1.35,0.85
		c2.63,1.63,5.27,1.63,7.9-0.01c0.37-0.23,0.74-0.45,1.08-0.7c0.63-0.47,1.32-0.53,2.07-0.42c2.04,0.3,3.49,1.42,4.46,3.2
		c0.87,1.59,1.26,3.32,1.43,5.11c0.09,0.92,0.13,1.84,0.12,2.76c-0.03,2.75-1.92,4.79-4.65,5.09c-0.07,0.01-0.13,0.04-0.2,0.06
		C18.76,31.75,13.24,31.75,7.73,31.75z"/>
	<path d="M23.4,7.82c0.03,4.15-3.4,7.59-7.57,7.61C11.65,15.44,8.22,12,8.21,7.86c0-4.19,3.35-7.58,7.56-7.61
		C19.97,0.22,23.37,3.6,23.4,7.82z"/>
</g>
</svg>
