<?xml version="1.0" encoding="utf-8"?>
<!-- Generator: Adobe Illustrator 24.3.0, SVG Export Plug-In . SVG Version: 6.00 Build 0)  -->
<svg version="1.1" id="Layer_1" xmlns="http://www.w3.org/2000/svg" xmlns:xlink="http://www.w3.org/1999/xlink" x="0px" y="0px"
	 viewBox="0 0 32 32" style="enable-background:new 0 0 32 32;" xml:space="preserve">
<path d="M2.85,11.6c0-1.55,0.01-3.09,0-4.64C2.84,6.25,3.1,5.8,3.8,5.5c3.83-1.67,7.64-3.37,11.45-5.08c0.53-0.24,1-0.22,1.52,0
	c3.81,1.7,7.63,3.41,11.45,5.08c0.69,0.3,0.95,0.76,0.95,1.47c-0.01,2.56,0,5.13-0.01,7.69c-0.01,3.25-0.64,6.36-2.33,9.18
	c-2.38,3.98-5.9,6.49-10.3,7.83c-0.33,0.1-0.76,0.1-1.09-0.01C8.73,29.46,4.37,25.1,3.13,17.98c-0.19-1.1-0.22-2.24-0.27-3.36
	C2.81,13.62,2.85,12.61,2.85,11.6z M13.38,18.19c-0.14-0.19-0.21-0.31-0.3-0.4c-0.9-0.91-1.81-1.82-2.72-2.72
	c-0.55-0.54-1.3-0.54-1.83-0.02c-0.51,0.5-0.58,1.26-0.07,1.77c1.35,1.38,2.71,2.74,4.1,4.08c0.2,0.19,0.55,0.27,0.84,0.32
	c0.45,0.07,0.76-0.23,1.05-0.52c2.97-2.98,5.95-5.95,8.92-8.92c0.08-0.08,0.17-0.17,0.24-0.26c0.37-0.47,0.38-1.08,0.02-1.56
	c-0.52-0.69-1.4-0.72-2.06-0.06c-2.64,2.63-5.27,5.27-7.91,7.91C13.57,17.88,13.51,18,13.38,18.19z"/>
</svg>
