<?xml version="1.0" encoding="utf-8"?>
<!-- Generator: Adobe Illustrator 24.3.0, SVG Export Plug-In . SVG Version: 6.00 Build 0)  -->
<svg version="1.1" id="Layer_1" xmlns="http://www.w3.org/2000/svg" xmlns:xlink="http://www.w3.org/1999/xlink" x="0px" y="0px"
	 viewBox="0 0 32 32" style="enable-background:new 0 0 32 32;" xml:space="preserve">
<g>
	<path d="M14.5,11.2c-3.92,0-7.84,0-11.77,0c-0.09,0-0.18,0-0.26,0c-0.42-0.01-0.73-0.21-0.84-0.56c-0.12-0.36-0.01-0.7,0.32-0.96
		c1.19-0.94,2.38-1.87,3.58-2.81c2.61-2.05,5.22-4.09,7.83-6.14c0.83-0.65,1.41-0.66,2.25-0.01c3.77,2.95,7.54,5.9,11.31,8.86
		c0.07,0.05,0.14,0.11,0.2,0.17c0.25,0.24,0.34,0.53,0.22,0.87c-0.12,0.35-0.37,0.54-0.74,0.56c-0.33,0.02-0.66,0.01-0.99,0.01
		C21.9,11.2,18.2,11.2,14.5,11.2z M14.47,8.51c1.11,0,2.02-0.9,2.02-2c0-1.1-0.92-2.01-2.02-2.01c-1.09,0-1.98,0.9-1.99,1.99
		C12.47,7.61,13.35,8.51,14.47,8.51z"/>
	<path d="M30.42,23.22c-0.03,0.93-0.01,1.87-0.12,2.79c-0.14,1.16-0.8,2.1-1.52,2.99c-0.96,1.19-2.19,2.06-3.59,2.66
		c-0.23,0.1-0.57,0.13-0.79,0.03c-1.69-0.8-3.2-1.82-4.3-3.38c-0.69-0.98-1.06-2.05-1.03-3.27c0.03-1.39,0.01-2.79,0.01-4.19
		c0-0.73,0.25-1.05,0.96-1.19c3.01-0.61,6.02-0.62,9.03-0.07c0.08,0.01,0.15,0.03,0.23,0.04c0.81,0.14,1.07,0.45,1.08,1.26
		c0,0.77,0,1.54,0,2.31C30.4,23.22,30.41,23.22,30.42,23.22z M20.34,23.45c0,0.54,0.02,1.08,0,1.61c-0.04,0.92,0.24,1.73,0.76,2.47
		c0.88,1.29,2.11,2.15,3.48,2.84c0.14,0.07,0.38,0.03,0.52-0.04c1.62-0.8,2.9-1.97,3.69-3.62c0.16-0.33,0.3-0.7,0.31-1.06
		c0.05-1.45,0.04-2.9,0.05-4.35c0-0.35-0.24-0.49-0.55-0.54c-2.57-0.44-5.14-0.45-7.7,0c-0.42,0.07-0.55,0.23-0.56,0.67
		C20.33,22.11,20.34,22.78,20.34,23.45z"/>
	<path d="M20.09,29.85c-5.9,0-11.74,0-17.6,0c0-0.65-0.04-1.29,0.01-1.93c0.04-0.46,0.45-0.76,0.93-0.78c0.33-0.01,0.66,0,0.99,0
		c4.54,0,9.07,0,13.61-0.01c0.27,0,0.4,0.07,0.5,0.33C18.87,28.34,19.41,29.11,20.09,29.85z"/>
	<path d="M3.07,12.21c7.61,0,15.19,0,22.79,0c0,0.36,0.03,0.71-0.01,1.05c-0.05,0.43-0.42,0.75-0.85,0.79
		c-0.13,0.01-0.26,0.01-0.39,0.01c-6.74,0-13.48,0-20.23,0c-1,0-1.31-0.31-1.31-1.32C3.07,12.57,3.07,12.41,3.07,12.21z"/>
	<path d="M11.89,26.13c0-0.42-0.02-0.82,0.01-1.23c0.02-0.25,0.2-0.38,0.45-0.4c0.19-0.01,0.39,0,0.6,0c0-2.61,0-5.17,0-7.77
		c-0.19,0-0.36,0.01-0.53,0c-0.35-0.02-0.53-0.19-0.53-0.53c-0.01-0.36,0-0.72,0-1.11c1.71,0,3.4,0,5.12,0
		c0,0.41,0.02,0.8-0.01,1.19c-0.02,0.29-0.22,0.44-0.51,0.46c-0.17,0.01-0.35,0-0.55,0c0,2.58,0,5.15,0,7.77c0.18,0,0.37,0,0.57,0
		c0.28,0,0.47,0.15,0.49,0.43c0.03,0.39,0.01,0.78,0.01,1.19C15.29,26.13,13.61,26.13,11.89,26.13z"/>
	<path d="M5.79,16.73c-0.22,0-0.41,0.01-0.59,0c-0.29-0.03-0.47-0.19-0.48-0.48c-0.01-0.38,0-0.77,0-1.17c1.67,0,3.33,0,5,0
		c0,0.41,0.02,0.8-0.01,1.2c-0.02,0.29-0.22,0.45-0.51,0.46c-0.17,0.01-0.35,0-0.55,0c0,2.59,0,5.16,0,7.77c0.21,0,0.4-0.01,0.59,0
		c0.29,0.01,0.45,0.18,0.47,0.46c0.02,0.38,0,0.76,0,1.16c-1.67,0-3.31,0-4.99,0c0-0.42-0.04-0.85,0.02-1.26
		c0.02-0.14,0.27-0.29,0.44-0.35c0.17-0.06,0.38-0.01,0.6-0.01C5.79,21.9,5.79,19.34,5.79,16.73z"/>
	<path d="M23.16,18.23c-1,0.12-1.96,0.24-2.96,0.36c0-0.62,0-1.22,0-1.86c-0.2,0-0.37,0.01-0.54,0c-0.35-0.02-0.53-0.18-0.54-0.53
		c-0.01-0.37,0-0.74,0-1.13c1.71,0,3.39,0,5.1,0c0,0.44,0.03,0.88-0.01,1.31c-0.02,0.24-0.25,0.34-0.49,0.35
		c-0.17,0.01-0.35,0-0.56,0C23.16,17.25,23.16,17.74,23.16,18.23z"/>
	<path d="M21.33,21.72c2.29-0.38,4.54-0.36,6.78-0.01c0.02,0.03,0.04,0.05,0.04,0.07c0,1.22,0.02,2.44-0.02,3.65
		c-0.01,0.34-0.15,0.69-0.3,0.99c-0.64,1.25-1.61,2.18-2.83,2.85c-0.09,0.05-0.24,0.08-0.32,0.04c-1.08-0.59-2.06-1.3-2.76-2.34
		c-0.4-0.58-0.61-1.2-0.59-1.91C21.35,23.96,21.33,22.85,21.33,21.72z M24.14,25.37c-0.05-0.01-0.06,0-0.07-0.01
		c-0.17-0.17-0.34-0.34-0.52-0.5c-0.25-0.24-0.52-0.26-0.73-0.05c-0.22,0.21-0.22,0.5,0.03,0.75c0.27,0.28,0.54,0.55,0.81,0.82
		c0.31,0.31,0.56,0.3,0.87-0.01c0.44-0.44,0.89-0.88,1.33-1.33c0.27-0.27,0.55-0.54,0.81-0.82c0.2-0.21,0.19-0.49,0.01-0.68
		c-0.19-0.2-0.48-0.2-0.71-0.01c-0.08,0.07-0.16,0.15-0.24,0.23C25.2,24.3,24.66,24.84,24.14,25.37z"/>
</g>
</svg>
