<?xml version="1.0" encoding="utf-8"?>
<!-- Generator: Adobe Illustrator 24.3.0, SVG Export Plug-In . SVG Version: 6.00 Build 0)  -->
<svg version="1.1" id="Layer_1" xmlns="http://www.w3.org/2000/svg" xmlns:xlink="http://www.w3.org/1999/xlink" x="0px" y="0px"
	 viewBox="0 0 300 61.49" style="enable-background:new 0 0 300 61.49;" xml:space="preserve">
<style type="text/css">
	.st0{fill:#414749;}
	.st1{fill:url(#SVGID_1_);}
	.st2{fill:url(#SVGID_2_);}
	.st3{fill:url(#SVGID_3_);}
	.st4{fill:url(#SVGID_4_);}
	.st5{fill:url(#SVGID_5_);}
	.st6{fill:#545454;}
	.st7{fill:#FFFFFF;}
</style>
<g>
	<g>
		<polygon class="st0" points="62.81,13.62 62.81,25.97 55.36,17.15 55.36,17.09 32.54,27.7 32.54,40.61 25.09,31.22 25.09,31.17 
			2.26,41.78 2.26,58.48 25.09,58.48 25.09,48.97 32.54,58.48 32.54,58.48 32.54,58.48 55.36,58.48 55.36,48.97 62.81,58.1 
			62.81,58.48 85.63,58.48 85.63,3.01 		"/>
		<linearGradient id="SVGID_1_" gradientUnits="userSpaceOnUse" x1="25.087" y1="44.8538" x2="32.5365" y2="44.8538">
			<stop  offset="0" style="stop-color:#C2C4C8"/>
			<stop  offset="0.84" style="stop-color:#B1B9BE"/>
			<stop  offset="1" style="stop-color:#ADB7BC"/>
		</linearGradient>
		<polygon class="st1" points="32.54,58.48 25.09,48.97 25.09,31.22 32.54,40.73 		"/>
		<linearGradient id="SVGID_2_" gradientUnits="userSpaceOnUse" x1="55.3604" y1="37.8164" x2="63.1269" y2="37.8164">
			<stop  offset="0" style="stop-color:#C2C4C8"/>
			<stop  offset="0.84" style="stop-color:#B1B9BE"/>
			<stop  offset="1" style="stop-color:#ADB7BC"/>
		</linearGradient>
		<polygon class="st2" points="63.13,58.48 55.36,48.97 55.36,17.15 63.13,26.34 		"/>
		<linearGradient id="SVGID_3_" gradientUnits="userSpaceOnUse" x1="13.6751" y1="58.4847" x2="13.6751" y2="31.1691">
			<stop  offset="0" style="stop-color:#8B8E95"/>
			<stop  offset="0.109" style="stop-color:#91949B"/>
			<stop  offset="0.2546" style="stop-color:#A2A4AA"/>
			<stop  offset="0.4209" style="stop-color:#BEBFC3"/>
			<stop  offset="0.5969" style="stop-color:#E3E4E4"/>
			<stop  offset="0.7543" style="stop-color:#E7E8E8"/>
			<stop  offset="0.896" style="stop-color:#F2F2F2"/>
			<stop  offset="1" style="stop-color:#FFFFFF"/>
		</linearGradient>
		<polygon class="st3" points="2.26,41.78 2.26,58.48 25.09,58.48 25.09,31.17 		"/>
		<linearGradient id="SVGID_4_" gradientUnits="userSpaceOnUse" x1="43.9485" y1="58.4847" x2="43.9485" y2="17.0895">
			<stop  offset="0" style="stop-color:#8B8E95"/>
			<stop  offset="0.109" style="stop-color:#91949B"/>
			<stop  offset="0.2546" style="stop-color:#A2A4AA"/>
			<stop  offset="0.4209" style="stop-color:#BEBFC3"/>
			<stop  offset="0.5969" style="stop-color:#E3E4E4"/>
			<stop  offset="0.7543" style="stop-color:#E7E8E8"/>
			<stop  offset="0.896" style="stop-color:#F2F2F2"/>
			<stop  offset="1" style="stop-color:#FFFFFF"/>
		</linearGradient>
		<polygon class="st4" points="32.54,27.7 32.54,58.48 55.36,58.48 55.36,17.09 		"/>
		<linearGradient id="SVGID_5_" gradientUnits="userSpaceOnUse" x1="74.2218" y1="58.4847" x2="74.2218" y2="3.01">
			<stop  offset="0" style="stop-color:#8B8E95"/>
			<stop  offset="0.109" style="stop-color:#91949B"/>
			<stop  offset="0.2546" style="stop-color:#A2A4AA"/>
			<stop  offset="0.4209" style="stop-color:#BEBFC3"/>
			<stop  offset="0.5969" style="stop-color:#E3E4E4"/>
			<stop  offset="0.7543" style="stop-color:#E7E8E8"/>
			<stop  offset="0.896" style="stop-color:#F2F2F2"/>
			<stop  offset="1" style="stop-color:#FFFFFF"/>
		</linearGradient>
		<polygon class="st5" points="62.81,13.62 62.81,58.48 85.63,58.48 85.63,3.01 		"/>
		<rect x="2.79" y="42.42" class="st6" width="0.16" height="15.53"/>
		<rect x="24.53" y="32.23" class="st6" width="0.16" height="25.73"/>
		<rect x="32.99" y="28.32" class="st6" width="0.16" height="29.64"/>
		<rect x="54.65" y="18.23" class="st6" width="0.16" height="39.73"/>
		<rect x="63.47" y="14.21" class="st6" width="0.16" height="43.75"/>
		<rect x="84.93" y="4.23" class="st6" width="0.16" height="53.73"/>
	</g>
	<g>
		<polygon class="st7" points="100.78,53.44 107.27,53.44 107.27,38.44 123.26,38.44 123.26,33 107.27,33 107.27,22.64 124.7,22.64 
			124.7,17.1 100.78,17.1 		"/>
		<path class="st7" d="M132.56,16.2c-1.04,0-1.91,0.33-2.62,1c-0.71,0.67-1.06,1.5-1.06,2.49c0,0.98,0.35,1.8,1.06,2.48
			c0.71,0.67,1.58,1.01,2.62,1.01c1.02,0,1.89-0.34,2.61-1.01c0.71-0.67,1.07-1.5,1.07-2.48c0-0.99-0.35-1.82-1.06-2.49
			C134.47,16.54,133.6,16.2,132.56,16.2z"/>
		<rect x="129.43" y="27" class="st7" width="6.24" height="26.43"/>
		<path class="st7" d="M160.72,27.75c-1.38-0.79-2.99-1.18-4.83-1.18c-2.23,0-4.09,0.6-5.58,1.8c-1.02,0.82-1.87,1.93-2.57,3.28
			L147.72,27h-6.05v26.43h6.24V38.25c0-1.4,0.25-2.56,0.74-3.5c0.5-0.94,1.17-1.63,2.04-2.09c0.86-0.45,1.84-0.68,2.95-0.68
			c1.66,0,2.95,0.5,3.87,1.5c0.92,1,1.38,2.43,1.38,4.3v15.65h6.24V36.81c0-2.21-0.39-4.08-1.17-5.6
			C163.18,29.69,162.1,28.54,160.72,27.75z"/>
		<path class="st7" d="M189.55,28.27c-1.93-1.15-4.18-1.73-6.77-1.73c-2.57,0-4.82,0.58-6.75,1.73c-1.94,1.15-3.44,2.76-4.5,4.83
			c-1.07,2.06-1.6,4.46-1.6,7.19c0,2.73,0.53,5.12,1.6,7.18c1.06,2.06,2.56,3.66,4.5,4.8c1.93,1.15,4.19,1.72,6.75,1.72
			c2.59,0,4.84-0.57,6.77-1.72c1.93-1.15,3.42-2.75,4.49-4.8c1.06-2.06,1.6-4.45,1.6-7.18c0-2.73-0.53-5.13-1.6-7.19
			C192.98,31.04,191.48,29.43,189.55,28.27z M188.55,44.74c-0.51,1.29-1.25,2.3-2.22,3.02c-0.97,0.72-2.15,1.09-3.55,1.09
			c-1.38,0-2.56-0.36-3.54-1.09c-0.98-0.72-1.71-1.73-2.22-3.01c-0.5-1.28-0.76-2.77-0.76-4.46c0-1.71,0.25-3.21,0.76-4.5
			c0.5-1.29,1.24-2.3,2.22-3.02c0.98-0.72,2.15-1.09,3.54-1.09c1.4,0,2.58,0.37,3.55,1.1s1.71,1.74,2.22,3.02
			c0.51,1.28,0.77,2.78,0.77,4.49C189.32,41.97,189.07,43.45,188.55,44.74z"/>
		<path class="st7" d="M221.63,17.1l-6.29,19c-0.58,1.87-1.23,4.01-1.93,6.41c-0.47,1.62-0.98,3.41-1.52,5.34
			c-0.55-1.92-1.08-3.71-1.56-5.33c-0.72-2.41-1.37-4.56-1.98-6.43l-6.49-19h-7.07l12.97,36.33h8.12l12.73-36.33H221.63z"/>
		<path class="st7" d="M247.71,28.76c-1-0.73-2.15-1.28-3.46-1.65c-1.31-0.37-2.72-0.55-4.23-0.55c-2.05,0-3.87,0.31-5.48,0.94
			c-1.6,0.63-2.91,1.53-3.93,2.71c-1.02,1.18-1.67,2.6-1.96,4.25l5.9,0.54c0.13-0.67,0.43-1.27,0.89-1.82
			c0.46-0.54,1.08-0.98,1.84-1.3c0.76-0.32,1.66-0.49,2.68-0.49c1.01,0,1.86,0.16,2.56,0.49c0.7,0.33,1.24,0.78,1.61,1.38
			c0.37,0.59,0.56,1.3,0.56,2.11v0.15c0,0.6-0.22,1.04-0.65,1.33c-0.43,0.28-1.13,0.49-2.08,0.62c-0.96,0.13-2.24,0.28-3.83,0.46
			c-1.32,0.15-2.59,0.37-3.82,0.67c-1.23,0.3-2.33,0.74-3.29,1.33c-0.97,0.59-1.73,1.37-2.29,2.34c-0.56,0.98-0.84,2.21-0.84,3.71
			c0,1.74,0.39,3.2,1.18,4.38c0.79,1.18,1.86,2.07,3.22,2.67c1.36,0.6,2.9,0.9,4.62,0.9c1.4,0,2.6-0.19,3.61-0.56
			c1.01-0.37,1.85-0.88,2.52-1.51c0.67-0.63,1.22-1.33,1.62-2.1h0.17v3.68h6.05V35.59c0-1.56-0.28-2.91-0.84-4.04
			C249.49,30.42,248.71,29.49,247.71,28.76z M244.72,43.81c0,0.99-0.24,1.91-0.73,2.74s-1.2,1.5-2.13,2
			c-0.94,0.5-2.06,0.74-3.38,0.74c-0.89,0-1.68-0.13-2.37-0.39c-0.68-0.26-1.21-0.64-1.58-1.15c-0.37-0.5-0.56-1.12-0.56-1.85
			c0-0.8,0.22-1.45,0.66-1.96c0.44-0.51,1.03-0.91,1.78-1.21c0.75-0.29,1.58-0.5,2.49-0.61c0.54-0.08,1.1-0.17,1.7-0.26
			c0.59-0.09,1.17-0.19,1.73-0.29c0.56-0.11,1.05-0.22,1.47-0.35c0.42-0.13,0.73-0.27,0.93-0.41V43.81z"/>
		<path class="st7" d="M268.73,48.51c-0.5,0.03-0.92,0.05-1.28,0.05c-0.98,0-1.66-0.2-2.06-0.61c-0.4-0.41-0.6-1.08-0.6-2.02V31.98
			h5.27V27h-5.27v-6.78h-6.24V27h-4.22v4.97h4.22v14.68c0,2.29,0.66,4.02,1.98,5.19c1.32,1.17,3.29,1.76,5.92,1.76
			c0.67,0,1.35-0.02,2.06-0.06c0.71-0.04,1.34-0.11,1.89-0.21l-0.46-4.93C269.63,48.45,269.23,48.48,268.73,48.51z"/>
		<path class="st7" d="M297.74,40.1c0-2.16-0.31-4.08-0.93-5.77c-0.62-1.68-1.49-3.1-2.61-4.25c-1.12-1.15-2.44-2.03-3.94-2.63
			c-1.5-0.6-3.15-0.9-4.94-0.9c-2.49,0-4.67,0.59-6.55,1.76c-1.88,1.17-3.34,2.79-4.4,4.86c-1.06,2.07-1.58,4.46-1.58,7.16
			c0,2.72,0.52,5.1,1.56,7.16c1.04,2.06,2.52,3.66,4.45,4.8c1.93,1.15,4.21,1.72,6.86,1.72c2.02,0,3.84-0.33,5.46-1
			c1.63-0.67,2.98-1.6,4.07-2.8c1.09-1.2,1.81-2.59,2.17-4.17l-5.78-0.54c-0.26,0.75-0.66,1.39-1.19,1.94
			c-0.54,0.54-1.19,0.96-1.98,1.24c-0.78,0.28-1.66,0.43-2.63,0.43c-1.41,0-2.63-0.31-3.66-0.91c-1.02-0.61-1.81-1.49-2.37-2.63
			c-0.5-1.03-0.76-2.25-0.81-3.65h18.78V40.1z M281.95,32.38c0.97-0.61,2.12-0.91,3.45-0.91c1.35,0,2.5,0.31,3.45,0.91
			c0.95,0.61,1.68,1.46,2.18,2.56c0.36,0.79,0.59,1.69,0.69,2.69h-12.74c0.1-1,0.34-1.9,0.73-2.72
			C280.24,33.84,280.98,32.99,281.95,32.38z"/>
	</g>
</g>
</svg>
